<svg width="460" height="567" viewBox="0 0 460 567" fill="none" xmlns="http://www.w3.org/2000/svg">
<path d="M125.257 0.0278608C122.913 0.083613 120.596 0.111494 118.251 0.250875C108.927 0.808397 99.603 2.39735 90.5862 5.01771C72.4969 10.2027 55.7475 19.6248 41.7897 32.0854C27.8598 44.5739 16.7215 60.1566 9.54715 77.4956C5.97395 86.165 3.34988 95.2526 1.7866 104.48C0.977047 109.107 0.502481 113.762 0.195409 118.418C0.0558313 120.731 0.0279156 123.073 0 125.415V566.972H24.6495V125.415C24.7053 123.547 24.7053 121.651 24.817 119.784C25.0682 116.048 25.4311 112.285 26.1011 108.577C27.3573 101.162 29.451 93.8588 32.3263 86.9177C38.1048 73.0075 47.0658 60.4354 58.2599 50.4C69.482 40.3925 82.9373 32.8102 97.4535 28.6566C104.684 26.5659 112.165 25.2836 119.702 24.8097C121.573 24.6703 123.471 24.6982 125.341 24.6146H459.972V0H125.257V0.0278608Z" fill="#EC2D26"/>
<path d="M120.428 37.1309C113.812 37.5212 107.252 38.6641 100.915 40.504C88.1855 44.1279 76.3772 50.7902 66.495 59.5991C56.6408 68.4358 48.7965 79.4469 43.7159 91.6566C41.2035 97.7615 39.361 104.145 38.2444 110.668C37.6582 113.93 37.3511 117.219 37.1278 120.508C37.044 122.153 37.0161 123.798 36.9882 125.47V567H49.3269V125.47C49.3828 124.049 49.3827 122.627 49.4665 121.205C49.6619 118.362 49.9411 115.519 50.4435 112.731C51.3927 107.128 52.9839 101.636 55.1334 96.3956C59.4882 85.8863 66.2717 76.3805 74.7581 68.7703C83.2723 61.188 93.4336 55.4455 104.377 52.3234C109.848 50.7345 115.487 49.7588 121.182 49.4243C122.605 49.3128 124.029 49.3407 125.453 49.2849H460V36.9637H125.425C123.778 37.0194 122.103 37.0194 120.456 37.1309H120.428Z" fill="#EC2D26"/>
<path d="M121.656 57.9544C116.604 58.261 111.579 59.1252 106.749 60.519C97.0347 63.2787 88.018 68.3801 80.4529 75.0982C72.9156 81.8442 66.8859 90.3185 63.0335 99.6292C61.1073 104.284 59.7115 109.163 58.8741 114.125C58.4274 116.606 58.1762 119.115 58.0087 121.651C57.9249 122.906 57.9529 124.188 57.897 125.442V566.944H64.0664V125.442C64.1222 124.3 64.1222 123.129 64.178 121.986C64.3455 119.672 64.5689 117.386 64.9597 115.128C65.7413 110.612 66.9975 106.18 68.7562 101.943C72.2736 93.4964 77.745 85.8026 84.6123 79.642C91.5074 73.5092 99.6867 68.8818 108.508 66.373C112.919 65.0907 117.441 64.3102 122.047 64.0314C123.192 63.9478 124.364 63.9756 125.509 63.9199H460V57.7593H125.481C124.225 57.815 122.94 57.815 121.684 57.8986L121.656 57.9544Z" fill="#EC2D26"/>
<path d="M122.354 69.9133C118.167 70.1641 114.063 70.8889 110.099 72.0318C102.115 74.2898 94.7177 78.4991 88.4646 84.0464C82.2394 89.6216 77.2984 96.5907 74.116 104.229C72.5527 108.076 71.3803 112.062 70.6824 116.132C70.3195 118.167 70.1241 120.257 69.9845 122.348C69.9286 123.407 69.9287 124.439 69.8728 125.498V566.972H73.9764V125.47C74.0322 124.495 74.0043 123.519 74.0602 122.543C74.1997 120.62 74.3672 118.696 74.7301 116.801C75.3722 113.01 76.433 109.33 77.8846 105.762C80.8158 98.6814 85.4218 92.2141 91.1724 87.057C96.951 81.9278 103.818 78.0252 111.216 75.9345C114.901 74.8752 118.697 74.2062 122.578 73.9831C123.555 73.8995 124.532 73.9274 125.509 73.8717H459.972V69.7739H125.509C124.448 69.8296 123.415 69.8017 122.354 69.8854V69.9133Z" fill="#EC2D26"/>
</svg>
