<svg width="1177" height="918" viewBox="0 0 1177 918" fill="none" xmlns="http://www.w3.org/2000/svg">
<path d="M1175.61 -25.5201V792.318L1175.55 794.047L1175.47 797.507C1175.33 799.85 1175.13 802.194 1174.94 804.398L1174.71 806.128C1174.52 807.83 1174.29 809.587 1174.02 811.289L1173.4 814.749L1173.09 816.423L1172.7 818.153C1168.71 836.315 1160.6 853.585 1149.16 868.065C1143.3 875.514 1136.77 882.155 1129.77 887.846C1122.58 893.677 1114.74 898.727 1106.45 902.856C1090.05 911.031 1071.5 915.495 1052.84 915.69H129.286L127.947 915.718H1.45047V893.872H1052.56C1067.98 893.649 1083.27 889.994 1096.74 883.271C1103.58 879.867 1110.02 875.71 1115.96 870.911C1121.74 866.252 1127.09 860.756 1131.95 854.59C1141.35 842.677 1148.07 828.475 1151.34 813.493L1151.67 812.043L1152.42 807.858C1152.65 806.574 1152.81 805.263 1152.95 803.98C1153.04 803.394 1153.09 802.808 1153.18 802.138C1153.34 800.241 1153.48 798.372 1153.62 796.419L1153.71 793.601V792.206L1153.76 791.481V-25.5201H1175.61ZM1177 -26.915H1152.37V792.178L1152.31 793.573L1152.23 796.391C1152.12 798.26 1151.98 800.157 1151.81 802.027C1151.56 803.896 1151.36 805.765 1151.06 807.634L1150.3 811.819L1150 813.187C1146.76 827.918 1140.21 841.895 1130.86 853.725C1126.2 859.64 1120.96 865.08 1115.1 869.823C1109.27 874.566 1102.88 878.667 1096.13 882.015C1082.66 888.739 1067.57 892.254 1052.56 892.45H0.0556841V917.085L1052.81 917.057C1071.44 916.834 1090.27 912.454 1107.04 904.056C1115.43 899.871 1123.36 894.793 1130.61 888.878C1137.89 882.992 1144.45 876.24 1150.22 868.874C1161.8 854.171 1170 836.762 1174.02 818.404L1174.41 816.674L1175.33 811.485C1175.72 809.169 1175.97 806.853 1176.25 804.51C1176.47 802.194 1176.64 799.85 1176.78 797.507L1176.86 794.019V792.262L1176.92 791.397V-26.915H1177Z" fill="#EC2D26"/>
<path d="M1138.62 -25.5201V790.839C1138.64 797.423 1137.97 803.924 1136.58 810.229C1133.79 823.007 1128.07 835.116 1120.06 845.243C1115.91 850.516 1111.33 855.204 1106.42 859.165C1101.35 863.267 1095.85 866.81 1090.02 869.711C1078.56 875.431 1065.56 878.555 1052.39 878.723H1.45057V869.181H1052.28C1064.02 869.014 1075.63 866.224 1085.81 861.146C1090.97 858.579 1095.88 855.427 1100.4 851.772C1104.75 848.256 1108.82 844.099 1112.56 839.356C1119.67 830.345 1124.78 819.575 1127.26 808.192L1127.51 807.076L1127.71 806.044L1128.1 803.924C1128.24 803.059 1128.35 802.166 1128.46 801.273C1128.52 800.743 1128.6 800.185 1128.68 799.544L1129.02 795.219L1129.08 793.099V792.039L1129.13 791.453V-25.5201H1138.67M1140.01 -26.915H1127.68V791.983L1127.62 793.043L1127.57 795.191L1127.23 799.46C1127.04 800.855 1126.9 802.278 1126.65 803.701L1126.29 805.793L1126.09 806.853L1125.84 807.885C1123.38 818.99 1118.45 829.564 1111.39 838.492C1107.87 842.956 1103.89 847.085 1099.45 850.684C1095.01 854.283 1090.22 857.38 1085.11 859.891C1074.93 864.968 1063.6 867.619 1052.19 867.758H0V880.09H1052.33C1065.56 879.923 1078.75 876.854 1090.58 870.939C1096.49 867.982 1102.1 864.382 1107.23 860.225C1112.37 856.068 1117 851.298 1121.1 846.08C1129.3 835.702 1135.05 823.426 1137.89 810.508C1139.31 804.063 1140.01 797.423 1139.98 790.811V-26.915H1140.01Z" fill="#EC2D26"/>
<path d="M1117.75 -25.5201V790.811L1117.67 794.689L1117.39 798.372C1117.3 798.902 1117.25 799.404 1117.19 799.934C1117.11 800.66 1117.02 801.385 1116.88 802.082L1116.55 803.952L1116.41 804.789L1116.19 805.737C1114.04 815.446 1109.72 824.653 1103.63 832.326C1100.43 836.399 1096.94 839.97 1093.26 842.928C1089.41 846.052 1085.2 848.759 1080.79 850.963C1072.11 855.287 1062.21 857.659 1052.19 857.798H1.45047V854.422H1052.11C1061.65 854.255 1071.05 852.023 1079.28 847.894C1083.47 845.801 1087.45 843.234 1091.11 840.277C1094.6 837.459 1097.92 834.083 1100.98 830.205C1106.76 822.924 1110.89 814.191 1112.9 804.984L1113.12 804.063L1113.26 803.226L1113.57 801.524C1113.68 800.855 1113.76 800.185 1113.84 799.488C1113.9 799.013 1113.96 798.539 1114.04 797.981L1114.29 794.466L1114.37 790.783V-25.5201H1117.75ZM1119.14 -26.915H1112.98V790.839L1112.9 794.494L1112.64 797.953C1112.48 799.097 1112.39 800.241 1112.17 801.357L1111.86 803.059L1111.72 803.896L1111.53 804.733C1109.55 813.661 1105.59 822.17 1099.87 829.424C1097.02 833.023 1093.81 836.399 1090.22 839.273C1086.65 842.174 1082.74 844.657 1078.64 846.722C1070.41 850.823 1061.32 852.944 1052.08 853.055H0.0556841V859.221H1052.14C1062.29 859.082 1072.34 856.766 1081.37 852.246C1085.89 849.986 1090.16 847.252 1094.09 844.072C1098.03 840.891 1101.57 837.208 1104.69 833.246C1110.97 825.295 1115.35 815.921 1117.53 806.072L1117.75 805.151L1117.92 804.231L1118.25 802.361C1118.47 801.106 1118.59 799.85 1118.75 798.595L1119.03 794.801L1119.12 790.839V-26.915H1119.14Z" fill="#EC2D26"/>
<path d="M1105.75 -25.5201V790.811L1105.7 794.103L1105.48 797.116C1105.39 797.591 1105.34 798.065 1105.28 798.539C1105.22 799.097 1105.14 799.627 1105.06 800.185L1104.78 801.748L1104.67 802.417L1104.47 803.198C1102.71 811.178 1099.14 818.683 1094.18 824.96C1091.53 828.336 1088.65 831.266 1085.64 833.665C1082.46 836.232 1079.03 838.436 1075.4 840.249C1068.23 843.848 1060.34 845.718 1051.97 845.857H1.45063V844.546H1052C1060.17 844.406 1067.87 842.565 1074.87 839.049C1078.39 837.292 1081.76 835.144 1084.83 832.633C1087.76 830.289 1090.55 827.415 1093.15 824.123C1098 818.013 1101.46 810.648 1103.19 802.891L1103.38 802.082L1103.49 801.385L1103.75 799.962C1103.86 799.432 1103.91 798.874 1103.97 798.316C1104.03 797.897 1104.08 797.479 1104.14 796.949L1104.36 793.964L1104.42 790.755V-25.5201H1105.73M1103.05 -26.915V790.839L1102.99 794.019L1102.77 796.921C1102.63 797.87 1102.55 798.846 1102.38 799.795L1102.13 801.217L1102.02 801.943L1101.85 802.64C1100.2 810.117 1096.88 817.26 1092.09 823.314C1089.69 826.355 1087.01 829.173 1083.97 831.6C1080.96 834.027 1077.69 836.12 1074.26 837.85C1067.37 841.309 1059.78 843.039 1052 843.179H0.0837431V847.28H1052.03C1060.42 847.168 1068.65 845.271 1076.07 841.533C1079.78 839.691 1083.3 837.403 1086.56 834.781C1089.83 832.158 1092.73 829.117 1095.29 825.853C1100.48 819.296 1104.05 811.596 1105.84 803.505L1106.03 802.752L1106.17 801.971L1106.45 800.436C1106.65 799.404 1106.7 798.372 1106.87 797.339L1107.12 794.215L1107.21 790.839V-26.915H1103.05Z" fill="#EC2D26"/>
</svg>
